<svg xmlns="http://www.w3.org/2000/svg" width="259" height="182" viewBox="0 0 259 182" fill="none">
<path d="M241 135V9.03913C241 4.57246 237.432 1 232.972 1H26.0282C21.5682 1 18 4.57246 18 9.03913V135" stroke="#202020" stroke-miterlimit="10" stroke-linecap="round" stroke-linejoin="round"/>
<path d="M142.484 154V157.599C142.484 160.299 140.693 162.099 138.007 162.099H120.097C117.411 162.099 115.62 160.299 115.62 157.599V154H1V172C1 177.4 4.58188 181 9.9547 181H249.045C254.418 181 258 177.4 258 172V154H142.484Z" stroke="#202020" stroke-miterlimit="10" stroke-linecap="round" stroke-linejoin="round"/>
<path d="M56 64L66.0226 91L76.0446 64L86.978 91L97 64" stroke="#202020" stroke-miterlimit="10" stroke-linecap="round" stroke-linejoin="round"/>
<path d="M109 64L119 91L129 64L139 91L149 64" stroke="#202020" stroke-miterlimit="10" stroke-linecap="round" stroke-linejoin="round"/>
<path d="M162 64L171.75 91L181.5 64L191.25 91L201 64" stroke="#202020" stroke-miterlimit="10" stroke-linecap="round" stroke-linejoin="round"/>
</svg>