<svg width="180" height="189" viewBox="0 0 189 189" fill="none" xmlns="http://www.w3.org/2000/svg">
<path d="M94.5 0L105.587 24.4976L123.702 4.62516L126.677 31.3499L150.046 18.0479L144.616 44.3838L170.952 38.9543L157.65 62.3234L184.375 65.2979L164.502 83.4127L189 94.5L164.502 105.587L184.375 123.702L157.65 126.677L170.952 150.046L144.616 144.616L150.046 170.952L126.677 157.65L123.702 184.375L105.587 164.502L94.5 189L83.4127 164.502L65.2979 184.375L62.3234 157.65L38.9543 170.952L44.3838 144.616L18.0479 150.046L31.3499 126.677L4.62516 123.702L24.4976 105.587L0 94.5L24.4976 83.4127L4.62516 65.2979L31.3499 62.3234L18.0479 38.9543L44.3838 44.3838L38.9543 18.0479L62.3234 31.3499L65.2979 4.62516L83.4127 24.4976L94.5 0Z" fill="#FF6A3A"/>
</svg>
